<svg version="1.1" xmlns="http://www.w3.org/2000/svg" xmlns:xlink="http://www.w3.org/1999/xlink"
	 viewBox="0 0 160 160" >
<path d="M57.8,92.8c1.8-2.1,3.5-4.4,5.4-6.4c7.2-7.8,16.8-11.2,26.8-13.6c11-2.6,22.2-4.8,33.2-7.5c4.9-1.2,9.6-3.2,15.2-5.1
	c-1.8,3.4-3.1,6.5-5,9.3c-7.7,11.5-19,17.4-32.4,19.6c-5.8,1-11.8,0.9-17.6,1.7c-13.3,1.8-22.4,9.1-26.8,21.5
	c-3,8.5-5,17.3-7.5,25.9c-0.4,1.3-0.2,2.1,1.2,2.7c21.6,9.5,42.9,8.6,63.7-2.3c0.4-0.2,0.7-0.5,1.5-1c-14.4-13.6-27-29.3-47.3-35.1
	c0,0.1,0-0.2,0.1-0.4c8.3-5.8,22.5-8.6,31.9-2.4c5.4,3.6,10.1,8.4,15.1,12.7c5,4.3,10,8.7,15.1,13.1c3.1-3.2,6.9-7.8,9.7-13.2
	c9-17,10.6-34.8,4.9-53.1c-0.6-1.8-0.5-3.2,0.8-4.9c2.1-2.7,3.8-5.8,6.1-9.4c1.8,4.5,3.7,8.6,4.9,12.8c12,42.2-10.7,84.2-51.6,97.7
	c-25.5,8.4-49.7,4.9-71.7-10.4c-18.1-12.6-29.3-30-32.4-51.7c-3.2-22.3,0.5-43.4,14.4-61.8c12.7-17,29.8-27.3,51-30.5
	c24.1-3.7,45.8,2.1,64.9,17.1c0.5,0.4,1,0.8,1.4,1.2c0.3,0.3,0.6,0.6,1.3,1.3c-3.2,2.1-6.2,4.3-9.3,6.2c-0.4,0.3-1.6-0.3-2.3-0.8
	c-25-17.8-59.4-19-84.6,0.2c-14.3,10.9-22.4,25.6-24.9,43c-2.6,18.2,0.8,35.2,11.8,50.3c2.4,3.3,5.4,6.3,8.5,9.9
	c1.5-5.9,2.8-11.2,4.2-16.4c2.8-10.4,5.2-20.9,8.5-31.1c4.8-15.1,15.2-25.5,30-31.2c9-3.5,18.5-6,27.8-8.8
	c11.4-3.5,22.8-6.8,32.6-13.8c5.2-3.7,9.8-7.9,13.6-13.6c0.1,3.2,0.6,6.5,0.4,9.7c-0.6,10.7-4.3,19.9-13,26.8
	c-7.3,5.7-15.8,8.9-24.7,11c-9.4,2.2-18.9,4-28.2,6.4c-8.9,2.3-16.9,6.6-22.3,14.3c-2.1,2.9-3.4,6.4-5.1,9.7
	C57.3,92.6,57.5,92.7,57.8,92.8z" fill="currentColor"/>
</svg>
